/* XPM */
static char * top_right_xpm[] = {
"7 38 3 1",
" 	c None",
".	c #FF0000 s active_shadow_2",
"+	c #C0C0FF s active_color_2",
"...    ",
"+++..  ",
"+++++. ",
"+++++. ",
"++++++.",
"++++++.",
"++++++.",
"++++++.",
"++++++.",
"++++++.",
"++++++.",
"++++++.",
"++++++.",
"++++++.",
"++++++.",
"++++++.",
"++++++.",
"++++++.",
"++++++.",
"++++++.",
"++++++.",
"++++++.",
"++++++.",
"++++++.",
"++++++.",
"++++++.",
"++++++.",
"++++++.",
"++++++.",
"++++++.",
"++++++.",
"++++++.",
"++++++.",
"++++++.",
"++++++.",
"++++++.",
"++++++.",
"++++++."};
